<?xml version="1.0" encoding="UTF-8" standalone="no" ?>
<!DOCTYPE svg PUBLIC "-//W3C//DTD SVG 1.1//EN" "http://www.w3.org/Graphics/SVG/1.1/DTD/svg11.dtd">
<svg xmlns="http://www.w3.org/2000/svg" xmlns:xlink="http://www.w3.org/1999/xlink" version="1.1" width="799" height="637" viewBox="0 0 799 637" xml:space="preserve">
<desc>Created with Fabric.js 3.6.6</desc>
<defs>
</defs>
<g transform="matrix(33.33 0 0 33.33 399.96 318.61)"  >
<path style="stroke: none; stroke-width: 0; stroke-dasharray: none; stroke-linecap: butt; stroke-dashoffset: 0; stroke-linejoin: miter; stroke-miterlimit: 4; fill: rgb(130,87,230); fill-rule: evenodd; opacity: 1;" vector-effect="non-scaling-stroke"  transform=" translate(-12, -11.56)" d="M 4.98488 2 C 3.61546 2 2.60217 3.19858 2.64753 4.49844 C 2.69105 5.74725 2.63451 7.36461 2.22732 8.68359 C 1.81892 10.0064 1.1282 10.8444 0 10.952 V 12.1666 C 1.1282 12.2742 1.81892 13.1122 2.22732 14.4351 C 2.63451 15.754 2.69105 17.3714 2.64753 18.6202 C 2.60217 19.9199 3.61546 21.1186 4.98508 21.1186 H 19.0169 C 20.3864 21.1186 21.3995 19.9201 21.3541 18.6202 C 21.3106 17.3714 21.3671 15.754 21.7743 14.4351 C 22.1829 13.1122 22.8718 12.2742 24 12.1666 V 10.952 C 22.8718 10.8444 22.1829 10.0064 21.7743 8.68359 C 21.3671 7.36481 21.3106 5.74725 21.3541 4.49844 C 21.3995 3.19878 20.3864 2 19.0169 2 H 4.98468 H 4.98488 Z M 16.2712 13.7687 C 16.2712 15.5586 14.9361 16.6441 12.7206 16.6441 H 8.94915 C 8.84127 16.6441 8.7378 16.6012 8.66152 16.5249 C 8.58523 16.4486 8.54237 16.3452 8.54237 16.2373 V 6.88136 C 8.54237 6.77347 8.58523 6.67001 8.66152 6.59372 C 8.7378 6.51743 8.84127 6.47458 8.94915 6.47458 H 12.6991 C 14.5464 6.47458 15.7588 7.47525 15.7588 9.01166 C 15.7588 10.09 14.9433 11.0555 13.9041 11.2245 V 11.2809 C 15.3187 11.4361 16.2712 12.4156 16.2712 13.7687 Z M 12.3094 7.76407 H 10.1589 V 10.8015 H 11.9701 C 13.3702 10.8015 14.1423 10.2377 14.1423 9.2299 C 14.1423 8.28556 13.4784 7.76407 12.3094 7.76407 Z M 10.1589 12.0068 V 15.3542 H 12.3885 C 13.8462 15.3542 14.6184 14.7692 14.6184 13.6699 C 14.6184 12.5704 13.8246 12.0066 12.2947 12.0066 H 10.1589 V 12.0068 Z" stroke-linecap="round" />
</g>
</svg>